<svg xmlns="http://www.w3.org/2000/svg" version="1.1" xmlns:xlink="http://www.w3.org/1999/xlink" xmlns:svgjs="http://svgjs.dev/svgjs" viewBox="0 0 800 800"><defs><filter id="ssspot-filter" x="-20%" y="-20%" width="140%" height="140%" filterUnits="objectBoundingBox" primitiveUnits="userSpaceOnUse" color-interpolation-filters="sRGB">
	<feTurbulence type="turbulence" baseFrequency="0.022 0.218" numOctaves="2" seed="131" stitchTiles="stitch" x="0%" y="0%" width="100%" height="100%" result="turbulence"></feTurbulence>
	<feGaussianBlur stdDeviation="0 3" x="0%" y="0%" width="100%" height="100%" in="turbulence" edgeMode="duplicate" result="blur"></feGaussianBlur>
	<feDisplacementMap in="SourceGraphic" in2="blur" scale="32" xChannelSelector="R" yChannelSelector="B" x="0%" y="0%" width="100%" height="100%" result="displacementMap"></feDisplacementMap>
</filter></defs><rect width="100%" height="100%" fill="#F4FFF8"></rect><g fill="hsl(32, 8%, 96%)" filter="url(#ssspot-filter)"><circle r="4.970381524051199" cx="486.573665387873" cy="623.0265547056277" opacity="0.107633547953476"></circle><circle r="2.7982612864298475" cx="780.8684900024053" cy="10.518024335642496" opacity="0.8611074869936228"></circle><circle r="5.536430811980516" cx="157.54404343554228" cy="644.5761311464651" opacity="0.7210060643317514"></circle><circle r="1.9859945018969607" cx="639.0390952325175" cy="496.70844566720496" opacity="0.1067523867314245"></circle><circle r="7.0065454812830135" cx="347.457780406145" cy="46.04551649227762" opacity="0.3507217336005596"></circle><circle r="6.791846863909073" cx="195.86468092081344" cy="471.77528852445454" opacity="0.3850837121492774"></circle><circle r="3.700154503221743" cx="662.3940214455229" cy="758.4202734852391" opacity="0.9388598651575205"></circle><circle r="5.385819170717961" cx="269.81993910104774" cy="591.368590611385" opacity="0.5351866694446156"></circle><circle r="2.7947163660971923" cx="108.28873844397197" cy="93.53609064414098" opacity="0.5815988750869722"></circle><circle r="6.393662595353312" cx="461.2052613158852" cy="12.938079113724722" opacity="0.25741695030043976"></circle><circle r="4.186570273218753" cx="358.6031887612485" cy="431.3456215091145" opacity="0.5954897774501307"></circle><circle r="5.161068944039104" cx="299.99533610666754" cy="172.68596962777545" opacity="0.2845934034163002"></circle><circle r="5.41611575394133" cx="247.22458843726258" cy="261.0180004964881" opacity="0.6664818865969316"></circle><circle r="8.008039282589687" cx="100.56942196949232" cy="540.1764450925552" opacity="0.5698428056253844"></circle><circle r="4.801770861112562" cx="366.0262512341662" cy="75.95591516060323" opacity="0.9364072234903211"></circle><circle r="4.213558131591863" cx="101.42540161673739" cy="275.30433649250074" opacity="0.8465434944159487"></circle><circle r="5.323041655835544" cx="723.183374865709" cy="86.4275420448677" opacity="0.8433745875717231"></circle><circle r="6.503108004943844" cx="281.7345433928396" cy="619.3588737908502" opacity="0.9208653483261497"></circle><circle r="3.821142206595484" cx="285.26987078813335" cy="69.52025441979441" opacity="0.47950258073556906"></circle><circle r="3.7261791896522687" cx="699.3348637254311" cy="615.8980998254364" opacity="0.5725168118993464"></circle><circle r="4.060860216454395" cx="641.6951172139933" cy="601.6530250385167" opacity="0.5050255158301898"></circle><circle r="6.365169207486825" cx="25.951900731258124" cy="357.662012218794" opacity="0.5904826165227552"></circle><circle r="5.959793496761224" cx="413.70369360423547" cy="382.88766734699635" opacity="0.6478246034131558"></circle><circle r="4.839166325549453" cx="640.3157077054398" cy="304.7650311768191" opacity="0.2821755595599972"></circle><circle r="5.6733439879971375" cx="134.81576919949234" cy="579.6881256468225" opacity="0.9232382922359845"></circle><circle r="4.318214575704506" cx="461.3541564671453" cy="353.5068881534154" opacity="0.3799914761101687"></circle><circle r="4.968960801338036" cx="530.5012139346728" cy="438.100425487853" opacity="0.9649346688091673"></circle><circle r="8.390234473164234" cx="225.72257358749124" cy="415.35801986946683" opacity="0.6191228147383392"></circle><circle r="4.862022333010584" cx="707.0024599276318" cy="12.964009072605233" opacity="0.30409580239175626"></circle><circle r="4.496259040135181" cx="372.8191155568682" cy="672.6995832085605" opacity="0.5312135291104945"></circle><circle r="3.8034247571459856" cx="707.0960566315409" cy="284.1972050456687" opacity="0.7497138033779025"></circle><circle r="4.828162851691141" cx="323.4550699091971" cy="346.33545737540624" opacity="0.10279544584425647"></circle><circle r="6.528787589678371" cx="564.9430899700209" cy="175.74645085235" opacity="0.5778913734352793"></circle><circle r="3.2724553327393995" cx="570.4577946788457" cy="669.7844758037642" opacity="0.4373084708996381"></circle><circle r="7.5162687560193575" cx="262.8975205104037" cy="221.42788243341656" opacity="0.47064551413644096"></circle><circle r="2.733676518954166" cx="158.19319066937265" cy="610.5170272090987" opacity="0.7792193851416815"></circle><circle r="3.6553856986578603" cx="327.02420940368125" cy="374.4292059230905" opacity="0.2120185591620003"></circle><circle r="4.7616880918498925" cx="27.496008256894058" cy="704.4980922992443" opacity="0.8563582037770779"></circle><circle r="5.2453568826540184" cx="99.73569742794703" cy="303.35812188931914" opacity="0.7203531573460162"></circle><circle r="6.677352997052308" cx="690.6070835303898" cy="356.96158673565304" opacity="0.44554031500392566"></circle><circle r="6.7148413659811546" cx="90.95375077582975" cy="48.29532399633129" opacity="0.2561329321895238"></circle><circle r="3.3444551958251783" cx="208.0370350528586" cy="29.48560417748511" opacity="0.998534275205261"></circle><circle r="6.506686003771145" cx="670.052701897985" cy="632.5344040648038" opacity="0.7395224581437717"></circle><circle r="7.020278563533539" cx="632.9108214311774" cy="684.0535127336478" opacity="0.33650632301869443"></circle><circle r="5.595292402345811" cx="717.2053535641702" cy="222.30467216454292" opacity="0.34400516796034264"></circle><circle r="7.892741448398233" cx="662.5343481374796" cy="332.6476683716498" opacity="0.2728472074529299"></circle><circle r="4.388039195189886" cx="182.85154168939" cy="576.4962367094583" opacity="0.8216943506503155"></circle><circle r="6.489592271336026" cx="375.79431018669084" cy="608.1992106282629" opacity="0.6769419373040547"></circle><circle r="5.207917895215315" cx="703.4058628573953" cy="762.210586320651" opacity="0.4268321557970918"></circle><circle r="5.310728431774394" cx="523.8744166272785" cy="731.4336747210135" opacity="0.6146501329442453"></circle><circle r="5.302574994408845" cx="151.83161555621052" cy="186.25868935504292" opacity="0.8791986135443146"></circle><circle r="5.178065360617831" cx="175.93424291975333" cy="87.07304199049243" opacity="0.9236012215699129"></circle><circle r="3.9201495430334314" cx="722.3473507825599" cy="753.890240623975" opacity="0.2607643842724617"></circle><circle r="6.590970010186853" cx="359.2177766848724" cy="633.1474974530142" opacity="0.2773800560074404"></circle><circle r="3.720854912838319" cx="693.2128109123448" cy="513.4760238352926" opacity="0.6111098894208279"></circle><circle r="8.139772347678818" cx="473.9507391039864" cy="276.5350544695767" opacity="0.3021913913049922"></circle><circle r="8.77724177662334" cx="162.6121303002618" cy="21.62573771779159" opacity="0.8543817950284449"></circle><circle r="4.020948516846506" cx="384.41066715158144" cy="460.12109929399713" opacity="0.5393969875082709"></circle><circle r="6.281469744389598" cx="72.52317166554182" cy="278.4179476660953" opacity="0.5965446264813977"></circle><circle r="5.245718063367115" cx="444.357175179251" cy="60.24792151123572" opacity="0.18438960833588808"></circle><circle r="3.7836576616016613" cx="685.3393189602212" cy="180.97455356737487" opacity="0.12069623333746171"></circle><circle r="5.223971622573646" cx="210.08245708287788" cy="530.6617231751244" opacity="0.27292560497356333"></circle><circle r="4.935210568501814" cx="320.56610920204196" cy="110.90407734073739" opacity="0.919882862464315"></circle><circle r="4.963729139250159" cx="191.57706431828277" cy="423.25432525347946" opacity="0.6732973385030732"></circle><circle r="5.330433766927515" cx="636.6759097073349" cy="275.0528102901204" opacity="0.1713179407410863"></circle><circle r="4.921459634318375" cx="167.20386990721914" cy="674.8445868934689" opacity="0.7314299681662139"></circle><circle r="4.199240470178591" cx="415.7948573650163" cy="157.91995581436862" opacity="0.41147668237903734"></circle><circle r="6.092565534604131" cx="110.48660812170631" cy="726.1917783978964" opacity="0.8880667231453685"></circle><circle r="4.016984944002501" cx="12.61527916108862" cy="281.9091983392707" opacity="0.44986289435134064"></circle><circle r="3.9989264185333475" cx="177.32640934708368" cy="116.10761686174735" opacity="0.5833079705235333"></circle><circle r="4.171902768411174" cx="515.3973662614834" cy="360.1157904241752" opacity="0.2565778492496244"></circle><circle r="4.699770842933666" cx="663.3362588091944" cy="179.19591741120908" opacity="0.7257928749420196"></circle><circle r="4.429644475210193" cx="439.9648197413279" cy="520.6003243655067" opacity="0.21099332867517"></circle><circle r="5.4697460813949" cx="788.4537160596543" cy="177.7018014630528" opacity="0.59291180696493"></circle><circle r="3.8518676481297254" cx="231.65544198398388" cy="202.94269103808662" opacity="0.23856186321607092"></circle><circle r="5.024200657779817" cx="425.90215488287043" cy="125.11435761083331" opacity="0.17029784713567597"></circle><circle r="6.793582045964776" cx="656.3610013618877" cy="441.05496092553057" opacity="0.9915135680087681"></circle><circle r="7.831533817914784" cx="293.11277451592434" cy="486.3524613924381" opacity="0.8746286888104989"></circle><circle r="4.562834516324233" cx="176.85653030710526" cy="311.8882744320396" opacity="0.7336972609892529"></circle><circle r="5.008323794547719" cx="406.670519516737" cy="18.466634215029316" opacity="0.49403018371984053"></circle><circle r="6.964883107768793" cx="409.46166058366293" cy="505.7937924565955" opacity="0.3096385063182794"></circle><circle r="5.77274151786082" cx="106.66518477191039" cy="580.6978685420733" opacity="0.27329218240864916"></circle><circle r="6.393151622781502" cx="784.6861555844579" cy="393.84833324652493" opacity="0.3978314390159423"></circle><circle r="4.171702395700448" cx="337.9399395013685" cy="102.82255922020043" opacity="0.28966218464035054"></circle><circle r="5.936791090498074" cx="565.4340789101781" cy="108.30943758195762" opacity="0.11319296896608502"></circle><circle r="5.5589102699454305" cx="593.3761256042548" cy="630.7074097421257" opacity="0.735501460589067"></circle><circle r="6.627669047238228" cx="244.02691305872318" cy="717.7893432499541" opacity="0.6272549230900155"></circle><circle r="4.434255314021352" cx="150.89399353803387" cy="93.49908461464653" opacity="0.18154688772645272"></circle><circle r="3.430268631286764" cx="192.031676241285" cy="596.8187638643128" opacity="0.20341275416749566"></circle><circle r="8.759111943524118" cx="441.3485420847238" cy="449.80414540414756" opacity="0.3221178105100485"></circle><circle r="4.255670953881559" cx="175.14366418048957" cy="616.3990783274726" opacity="0.5895167508790681"></circle><circle r="3.130915847474488" cx="385.98047180059206" cy="30.104080659598928" opacity="0.7857664448348392"></circle><circle r="6.623933753486068" cx="19.00504779905188" cy="519.2477965226308" opacity="0.2855448941156782"></circle><circle r="7.999340610684822" cx="663.3328330353672" cy="97.74709764107963" opacity="0.3671204436743978"></circle><circle r="3.683418282539552" cx="605.7254780855427" cy="217.27377787947478" opacity="0.9052521633364031"></circle><circle r="5.272807352766398" cx="530.0461788696756" cy="55.38402926641858" opacity="0.3050102319223421"></circle><circle r="5.913861449956074" cx="259.6116634808181" cy="371.6726956740292" opacity="0.6986182091998969"></circle><circle r="6.518806451140609" cx="677.8172346877404" cy="478.8569769670933" opacity="0.790121082512809"></circle><circle r="3.6185261340732024" cx="323.9118167977322" cy="251.1148555287805" opacity="0.8636892691117892"></circle><circle r="5.197087786894407" cx="333.21681142533345" cy="421.29025904493557" opacity="0.8704974506892705"></circle><circle r="7.204161278506133" cx="538.626206909751" cy="85.53183775395803" opacity="0.5623398507824233"></circle><circle r="7.524053153518414" cx="513.2784854825297" cy="277.3834723416365" opacity="0.6905716323583702"></circle><circle r="5.777681769096603" cx="314.52816198261195" cy="462.5949208793832" opacity="0.1261078447132421"></circle><circle r="6.278360068798401" cx="773.7579332244834" cy="482.38361771446006" opacity="0.26226866485536227"></circle><circle r="5.780545728735634" cx="51.55299950090349" cy="212.44709111692615" opacity="0.1660983086060005"></circle><circle r="6.862239344055411" cx="285.2261305562901" cy="249.4657312600924" opacity="0.16994053753649163"></circle><circle r="5.1324217240445815" cx="162.5063179971053" cy="527.1384164686785" opacity="0.6273948448172019"></circle><circle r="3.9573610917096254" cx="425.12385748237466" cy="572.8712887280739" opacity="0.3713310394647802"></circle><circle r="5.058297340380893" cx="378.7080460939742" cy="193.0450521649715" opacity="0.9779389281744904"></circle><circle r="7.355446041826415" cx="105.92261785191427" cy="444.9905776679708" opacity="0.3348647514818509"></circle><circle r="4.308397425736555" cx="558.3138693022607" cy="729.054956468323" opacity="0.49082507096195194"></circle><circle r="3.9291893414841317" cx="194.63176925954846" cy="508.4685295795608" opacity="0.2929262699889146"></circle><circle r="6.3068504597649735" cx="616.406927698755" cy="321.72743159071416" opacity="0.9823324372803299"></circle><circle r="4.175379579038426" cx="206.09596409776637" cy="331.09629497413647" opacity="0.3779509148024015"></circle><circle r="3.0096954659442234" cx="708.4221912966591" cy="724.6983912561986" opacity="0.4946040356782838"></circle><circle r="4.853147883537529" cx="142.6066277791765" cy="160.60986696055622" opacity="0.7364683040216553"></circle><circle r="5.5169981438239555" cx="608.039303652175" cy="570.8726252497032" opacity="0.6579749538030328"></circle><circle r="4.846048351519793" cx="281.89262979223093" cy="289.16170299585957" opacity="0.46118604307177735"></circle><circle r="8.079068766527788" cx="51.61801147459821" cy="52.51531998809003" opacity="0.7877645573080808"></circle><circle r="6.399113282304146" cx="734.4099446099589" cy="468.2237180946673" opacity="0.717270005390822"></circle><circle r="6.419593477592673" cx="117.62975780099148" cy="135.30930200208613" opacity="0.9256588457123411"></circle><circle r="4.307832702581079" cx="180.26761548085463" cy="54.4882042067099" opacity="0.6906294946114191"></circle><circle r="6.13867935827396" cx="555.865085172607" cy="352.0499282748892" opacity="0.9101996166100473"></circle><circle r="6.104506881538333" cx="99.74550598651271" cy="489.5296611968959" opacity="0.7326629285949581"></circle><circle r="6.990739370413982" cx="433.1392481129591" cy="331.9736565485855" opacity="0.22426102544748105"></circle><circle r="3.0213009337552017" cx="643.1119933372894" cy="382.55791185248614" opacity="0.7297834602828204"></circle><circle r="4.817899470798771" cx="354.2194999434899" cy="395.7159991802882" opacity="0.1519465510780692"></circle><circle r="5.300967086153568" cx="361.7520137340066" cy="289.69262455407375" opacity="0.40113904514307985"></circle><circle r="5.146178216320686" cx="84.4525144822129" cy="749.0166742133897" opacity="0.5082827971296142"></circle><circle r="7.042091965099697" cx="744.1991657549495" cy="222.53791294616215" opacity="0.4372712167349896"></circle><circle r="6.014513637044523" cx="754.6256591499969" cy="720.8272535340965" opacity="0.8946245157201788"></circle><circle r="4.444546224351692" cx="712.8042588847854" cy="488.6541057847352" opacity="0.20925385297295895"></circle><circle r="3.362961122513793" cx="157.5155125865601" cy="138.96485123934454" opacity="0.22668258771232908"></circle><circle r="3.4116463599020284" cx="701.6082243088151" cy="198.14605430693746" opacity="0.14753650432427018"></circle><circle r="3.019006099428494" cx="490.651114051139" cy="718.2676833282801" opacity="0.5497358072237215"></circle><circle r="3.4353582454621616" cx="336.8387787053499" cy="630.9873275822296" opacity="0.48474489610639504"></circle><circle r="4.32930032879473" cx="144.61952247584102" cy="119.79807594752893" opacity="0.6878188758148667"></circle><circle r="5.496680273682975" cx="718.1001880894272" cy="787.8617645445827" opacity="0.4394014132329581"></circle><circle r="6.069262908206564" cx="637.1319726353892" cy="456.0302715728376" opacity="0.4196198436638785"></circle><circle r="6.199786938255384" cx="168.20529192264112" cy="494.12807630806816" opacity="0.6205197216433024"></circle><circle r="6.790683590988912" cx="609.6305520424933" cy="455.4014385670781" opacity="0.5532691889669011"></circle><circle r="3.4025103291477388" cx="381.3187167965114" cy="91.51822258886973" opacity="0.7742419141969278"></circle><circle r="3.611894627844191" cx="790.6478731256863" cy="657.135310997116" opacity="0.3342632166341793"></circle><circle r="6.281412662701605" cx="21.792699854281622" cy="165.10154276154847" opacity="0.7222480666473369"></circle><circle r="6.351825844759926" cx="128.24111005393647" cy="283.2332279519261" opacity="0.1677337562012447"></circle><circle r="9.135885111815703" cx="64.80026863342208" cy="781.4634174294342" opacity="0.8340310343291369"></circle><circle r="3.3516015355952993" cx="774.5303471264286" cy="789.4960998593367" opacity="0.37298883818229367"></circle><circle r="4.336265232636836" cx="761.7641174925104" cy="603.9755423053729" opacity="0.39819565386264233"></circle><circle r="5.220828883858161" cx="581.9422625119727" cy="134.3560087876649" opacity="0.36794197470354373"></circle><circle r="5.498843945737462" cx="576.0304368940266" cy="201.86337791726203" opacity="0.6609959189824818"></circle><circle r="4.337124132175069" cx="390.5307469897644" cy="631.3805913878087" opacity="0.5281795008406877"></circle><circle r="4.850403775036263" cx="644.562451129161" cy="166.41329613983055" opacity="0.4223048787450119"></circle><circle r="5.269283468975822" cx="143.70182261703994" cy="311.31993229621514" opacity="0.9280925315130888"></circle><circle r="5.335440768337572" cx="780.5987333962752" cy="117.35983037724101" opacity="0.5036709442060238"></circle><circle r="8.09745309451489" cx="20.651167930529233" cy="17.67986869707665" opacity="0.40286757990506017"></circle><circle r="5.787510653532661" cx="322.21773641421197" cy="779.0270773202653" opacity="0.5320953709852636"></circle><circle r="3.388695969508459" cx="11.80722924079535" cy="323.0381593712348" opacity="0.34700343749982887"></circle><circle r="6.974040057337312" cx="397.04422495854186" cy="265.5527781290853" opacity="0.9278587545082724"></circle><circle r="7.140597854128917" cx="197.59970021860084" cy="220.22927309431924" opacity="0.38046545196569137"></circle><circle r="5.6803273045200005" cx="440.9717736669214" cy="90.0153462662296" opacity="0.9057154071355561"></circle><circle r="7.16761812433948" cx="237.91193437250618" cy="675.5495279498607" opacity="0.4863076229081611"></circle><circle r="6.779119340181021" cx="288.8797857202506" cy="665.3835026657915" opacity="0.8710544799756043"></circle><circle r="5.470367546726383" cx="237.83563816615683" cy="616.8719998474719" opacity="0.5167762033404617"></circle><circle r="5.013694396364757" cx="783.2769562326263" cy="201.98364488433873" opacity="0.5219896320609358"></circle><circle r="4.582419696231849" cx="510.702207397906" cy="708.4065917855935" opacity="0.36502645429569425"></circle><circle r="7.619812512693429" cx="353.1799857943508" cy="704.9736804543053" opacity="0.6276105403960088"></circle><circle r="3.9416655531757994" cx="50.31625652712018" cy="172.07000006868512" opacity="0.9759826508371109"></circle><circle r="3.7567171567428628" cx="410.7970801081562" cy="82.56851095944873" opacity="0.7243597547870176"></circle><circle r="7.600920387946957" cx="674.352297789565" cy="575.8860724438425" opacity="0.49722802831630564"></circle><circle r="4.452588967917743" cx="312.81262356648443" cy="616.0489273384701" opacity="0.36047251326866303"></circle><circle r="5.9344597412558855" cx="41.20934079894322" cy="573.5574448686563" opacity="0.4931430299798687"></circle><circle r="4.165804223700521" cx="143.6670175911346" cy="452.469264925134" opacity="0.7031468065398357"></circle><circle r="4.60504538577373" cx="434.0526172278136" cy="774.8003613840549" opacity="0.42791048794173925"></circle><circle r="5.711487602833882" cx="44.19844168317747" cy="297.8683726169697" opacity="0.693056883777609"></circle><circle r="7.793251906585941" cx="779.1604949259847" cy="442.51905771116884" opacity="0.31081584282000696"></circle><circle r="4.922988866966358" cx="418.13701779507403" cy="735.8481658065454" opacity="0.5063165475537048"></circle><circle r="6.255083881203658" cx="101.01912279018201" cy="648.5183963867241" opacity="0.5297735276506244"></circle><circle r="3.1533311585168757" cx="395.54236774645364" cy="538.5004277968646" opacity="0.36998141093218695"></circle><circle r="5.467351948689112" cx="569.3237290016494" cy="788.4051048918004" opacity="0.30400008945907453"></circle><circle r="4.011517403590237" cx="720.6052055532864" cy="695.3786223754926" opacity="0.8326183991783488"></circle><circle r="3.71331694076469" cx="179.24026292508984" cy="167.33580206318493" opacity="0.83870116819543"></circle><circle r="6.612704232480201" cx="443.92927314355694" cy="414.2826455157412" opacity="0.8402925029202294"></circle><circle r="7.420633401391097" cx="477.38245859314316" cy="234.2708171367496" opacity="0.13690318876503213"></circle><circle r="2.81239298594765" cx="789.8605482503798" cy="755.925341389455" opacity="0.9905336649958647"></circle><circle r="5.739105899702029" cx="293.3959231699203" cy="749.3384824357737" opacity="0.41544679145200725"></circle><circle r="4.565409622823884" cx="310.146615109153" cy="321.6110638467777" opacity="0.33144112811002424"></circle><circle r="4.039652302228502" cx="125.94135388552328" cy="323.91956437186553" opacity="0.29462461542557744"></circle><circle r="5.210805277083985" cx="472.628128069736" cy="181.0704014247067" opacity="0.8409555170268779"></circle><circle r="3.9754601354401236" cx="408.2181941626888" cy="610.2927999047497" opacity="0.29275736955183246"></circle><circle r="4.668490824101244" cx="212.42753177722327" cy="563.3053969016388" opacity="0.8893543295958761"></circle><circle r="7.261222304607511" cx="709.6533847845919" cy="156.5422527800774" opacity="0.3634998961255983"></circle><circle r="5.414283526342545" cx="230.22926285155987" cy="231.3678055197125" opacity="0.656072279636506"></circle><circle r="5.04214331684008" cx="228.58478446054545" cy="370.6912794758858" opacity="0.2110029616599045"></circle><circle r="3.305119015774504" cx="378.94515105516814" cy="735.9225922782422" opacity="0.1394650702709227"></circle><circle r="3.803166125497027" cx="183.1230145058408" cy="761.4873296908429" opacity="0.781169208931202"></circle><circle r="4.175748537967461" cx="202.5614692708178" cy="79.30077515454984" opacity="0.29950634741850624"></circle><circle r="3.124932540866944" cx="584.4322135961459" cy="770.3188553637403" opacity="0.3872076165042958"></circle><circle r="4.406297993382083" cx="680.6582085439621" cy="657.2413233896054" opacity="0.737050834455084"></circle><circle r="3.1100796857519644" cx="106.6690164312694" cy="70.21420966539017" opacity="0.4125479925000628"></circle><circle r="6.609529771738277" cx="615.8398700289705" cy="19.559807898223976" opacity="0.21675379492117558"></circle><circle r="8.535610416151059" cx="50.932456598673575" cy="737.902292463683" opacity="0.39766469726952414"></circle><circle r="4.866359824999375" cx="511.94524454558234" cy="773.7891438889344" opacity="0.42125360008924184"></circle><circle r="5.8519243845138185" cx="441.50207944240583" cy="553.6482073175566" opacity="0.682965278174971"></circle><circle r="5.630735553822761" cx="637.4742023996166" cy="756.8388273916398" opacity="0.6621264029658316"></circle><circle r="5.510187968163596" cx="413.39237915060573" cy="659.3197286944519" opacity="0.10350052431057574"></circle><circle r="6.3086175181476145" cx="537.7821443008851" cy="784.0915702678199" opacity="0.3373591346520973"></circle><circle r="5.125689915890819" cx="639.4451875073496" cy="549.1937323603755" opacity="0.4201192264403313"></circle><circle r="6.588819342791384" cx="466.98023756164946" cy="386.0595317643967" opacity="0.6454107390602478"></circle><circle r="5.8545499103798555" cx="755.7593150354477" cy="74.27651412967245" opacity="0.5587454973702506"></circle><circle r="7.630843003479516" cx="15.217399700258131" cy="741.4702337664281" opacity="0.14846976743521872"></circle><circle r="5.361905896176198" cx="83.20348926257968" cy="89.8429876781535" opacity="0.7552236978812611"></circle><circle r="6.438300724398996" cx="731.9871231097559" cy="263.81590386272" opacity="0.5099894956349493"></circle><circle r="3.137431989912022" cx="205.92362846753616" cy="8.452325426990965" opacity="0.8645626645701039"></circle><circle r="5.206724258821488" cx="787.280322382999" cy="336.70796312934476" opacity="0.5735568899469659"></circle><circle r="3.838525243182394" cx="218.94167159618493" cy="779.2282745442989" opacity="0.4675266569569133"></circle><circle r="4.804476192150141" cx="87.211747184888" cy="203.08981753918164" opacity="0.6193687538463019"></circle><circle r="3.386960190331598" cx="373.68958540567" cy="50.64034592828133" opacity="0.3316055205704171"></circle><circle r="3.8344913935577427" cx="39.317640620494515" cy="330.9616279786297" opacity="0.6857181031783351"></circle><circle r="5.155015865573533" cx="15.873142578682673" cy="554.863711850866" opacity="0.8534691972205046"></circle><circle r="3.193317605052257" cx="246.22526524682664" cy="90.38158014412036" opacity="0.40266855721912576"></circle><circle r="8.144396394909435" cx="441.993406329837" cy="640.8186670902704" opacity="0.8528157521240294"></circle><circle r="9.047640266235348" cx="781.3378335634454" cy="519.5779619422813" opacity="0.35646874811046614"></circle><circle r="4.500796502020851" cx="289.77637185443353" cy="715.6173382023005" opacity="0.4612404171384127"></circle><circle r="5.157459230321496" cx="229.62895127479436" cy="760.2266644555519" opacity="0.6269932051826062"></circle><circle r="3.864630567785584" cx="609.6554426173286" cy="711.4578342447395" opacity="0.5173200146768779"></circle><circle r="3.8446810140402485" cx="658.8126193733834" cy="407.98001336163355" opacity="0.7504579671272978"></circle><circle r="4.78323796358509" cx="389.57600317025026" cy="416.84599564455266" opacity="0.6279772729259324"></circle><circle r="6.300062102917827" cx="375.95188137956274" cy="319.708260255003" opacity="0.31013791584593564"></circle><circle r="3.795564528905219" cx="13.528346796101555" cy="183.86319124516203" opacity="0.9892333983798244"></circle><circle r="4.7288901760978925" cx="492.99580192258605" cy="748.563514571464" opacity="0.9778383429874096"></circle><circle r="6.040793407695387" cx="306.7737364635902" cy="43.80619123424655" opacity="0.9353091797131861"></circle><circle r="4.106040805110558" cx="453.93480854731905" cy="745.2508883042924" opacity="0.8161183698011809"></circle><circle r="4.898111809905459" cx="709.5906663565559" cy="655.4752277582127" opacity="0.6608411427239576"></circle><circle r="4.242966967476151" cx="106.03055202757199" cy="167.95752584832883" opacity="0.8486812889935986"></circle><circle r="5.638159543259933" cx="739.0676695558989" cy="672.2645957600723" opacity="0.19702485104293785"></circle><circle r="5.35526295319929" cx="571.7103749352325" cy="697.4955730199093" opacity="0.1757647355362074"></circle><circle r="5.394851298672929" cx="148.74919928950405" cy="249.53620734134645" opacity="0.27957811443558356"></circle><circle r="5.571900326074769" cx="578.5870548714078" cy="467.70209819169776" opacity="0.8159082578239453"></circle><circle r="5.6119918250617555" cx="134.53186965980885" cy="613.4638875294088" opacity="0.8988448354658143"></circle><circle r="8.083239927146796" cx="274.06918245467295" cy="189.7943381499048" opacity="0.8349841197005542"></circle><circle r="3.218552133801173" cx="687.0265337094775" cy="715.2162175359118" opacity="0.91135082382865"></circle><circle r="5.4361205273902815" cx="657.6175716129808" cy="503.37865768417396" opacity="0.6995982485317856"></circle><circle r="6.461974358310146" cx="751.2872855009559" cy="302.1610240847372" opacity="0.7104912354533891"></circle><circle r="6.117584844529166" cx="382.6596784251143" cy="713.6779398355285" opacity="0.35287437681274136"></circle><circle r="3.3801796649624096" cx="476.1468297166571" cy="790.3914929264911" opacity="0.4345756547396381"></circle><circle r="4.481138530761933" cx="761.032790779998" cy="692.4490673835037" opacity="0.40440261864183547"></circle><circle r="8.433107998194721" cx="110.15806234557577" cy="777.4255952960267" opacity="0.5696825408506972"></circle><circle r="6.5765151222008935" cx="343.6689305734469" cy="669.1445442663786" opacity="0.31179931562170005"></circle><circle r="4.509711964298168" cx="731.2244051836195" cy="731.9072928198945" opacity="0.45024142240950815"></circle><circle r="4.190339698846513" cx="706.9698515290056" cy="42.44404330008997" opacity="0.10299859988266903"></circle><circle r="4.321883825181961" cx="242.71207876710034" cy="572.4967039248967" opacity="0.2394363452532804"></circle><circle r="5.132964242274449" cx="224.87594454977813" cy="50.71872696204403" opacity="0.5554796745425805"></circle><circle r="3.3217022671597713" cx="767.0520737637485" cy="744.7224732373245" opacity="0.49320706903033495"></circle><circle r="5.26213163418531" cx="211.22700875758358" cy="710.9220481080007" opacity="0.6259476984438164"></circle><circle r="4.921111851364473" cx="773.6291914061097" cy="283.8426487281643" opacity="0.2949490065910067"></circle><circle r="3.987327464004146" cx="358.2704738173747" cy="108.78850454409965" opacity="0.9143345554785903"></circle><circle r="5.406605515721241" cx="495.7869409477765" cy="11.789751501346238" opacity="0.3967224164997325"></circle><circle r="6.619210460079547" cx="438.6732448146433" cy="484.53388734273847" opacity="0.730945876079691"></circle><circle r="6.752352770942428" cx="572.0788929163119" cy="436.43668546606375" opacity="0.2940822861668967"></circle><circle r="3.607639235332036" cx="14.45885301227272" cy="84.33733347487389" opacity="0.9314624267876299"></circle><circle r="7.83744663918352" cx="675.7449414812455" cy="291.373051513651" opacity="0.799301799699955"></circle><circle r="2.835598134503663" cx="624.1204342566894" cy="790.5121775662011" opacity="0.2901197434431225"></circle><circle r="5.280944401285884" cx="139.02048744000092" cy="60.16343607119395" opacity="0.9698984672856618"></circle><circle r="6.095429253785094" cx="16.230780043932032" cy="52.85648242891106" opacity="0.5916139110538557"></circle><circle r="7.097873742204225" cx="334.99531155028956" cy="168.9679334714675" opacity="0.6705156817273744"></circle><circle r="5.583025498242775" cx="196.94385618233073" cy="365.80173173578027" opacity="0.5401194671464463"></circle><circle r="7.272764504388445" cx="371.6863460794285" cy="517.4807544708988" opacity="0.6870098502528283"></circle><circle r="6.9106236417110365" cx="490.40706074966744" cy="85.87661764722368" opacity="0.25826091091110637"></circle><circle r="9.701984109875651" cx="588.3251678474145" cy="277.7961778928218" opacity="0.7498551102845925"></circle><circle r="5.288567101011897" cx="325.85773013813264" cy="735.6418476355442" opacity="0.5662178128701921"></circle><circle r="3.759025373082504" cx="781.4757328242545" cy="631.7671324841292" opacity="0.848185834053484"></circle><circle r="4.297320872628077" cx="467.07082693460507" cy="770.7122420694222" opacity="0.6916393439177276"></circle><circle r="5.020966151272007" cx="535.7109851791047" cy="385.8932353925034" opacity="0.3265842220588787"></circle><circle r="2.7497902299817936" cx="62.387516374339874" cy="380.00162853809786" opacity="0.9313298125588516"></circle><circle r="3.8988025744357797" cx="350.445938057304" cy="138.0277784463179" opacity="0.3294563045582162"></circle><circle r="3.921682482487566" cx="286.2159501147187" cy="392.95093278344535" opacity="0.31945378645120326"></circle><circle r="5.445637518812269" cx="409.09112848762163" cy="447.7437345742881" opacity="0.30781780336591597"></circle><circle r="5.252981687393905" cx="76.03872255599157" cy="702.7440697055329" opacity="0.17139329000271722"></circle><circle r="4.566715808925919" cx="285.01376549670204" cy="441.5307001889514" opacity="0.6203121880232876"></circle><circle r="4.361645800351907" cx="347.29693982365615" cy="261.8188422642309" opacity="0.4527299244681081"></circle><circle r="4.929538131586386" cx="744.7609206052509" cy="29.956286500264333" opacity="0.554183624718442"></circle><circle r="5.919770063670632" cx="342.1742838352131" cy="77.57036925936326" opacity="0.5316704920518581"></circle><circle r="4.333697627619804" cx="582.5026222508142" cy="396.203340434931" opacity="0.39514366229266173"></circle><circle r="5.5915907738897355" cx="542.6331746773856" cy="324.35107530821665" opacity="0.4601888093699821"></circle><circle r="8.316871953836557" cx="731.735057458237" cy="432.4388078685824" opacity="0.9092235807881265"></circle><circle r="6.53073942658275" cx="603.4813948842054" cy="672.8464631275822" opacity="0.606337566224354"></circle><circle r="7.801001676696062" cx="471.17360601677655" cy="542.5725234583342" opacity="0.6781544725199449"></circle><circle r="9.007145192186684" cx="686.1788794716135" cy="246.49948660129024" opacity="0.9121749640936345"></circle><circle r="5.0002440960254955" cx="227.8529361784406" cy="115.31129870870552" opacity="0.4673140743913795"></circle><circle r="3.8953823397284264" cx="724.7317311488894" cy="312.43431404283973" opacity="0.811329822935006"></circle><circle r="5.7318863270655385" cx="782.7499983324221" cy="54.55479488138177" opacity="0.7265498939709579"></circle><circle r="6.762649798778242" cx="140.50991531583736" cy="484.7891726122431" opacity="0.4280264232626405"></circle><circle r="5.296996853508342" cx="709.1044182021927" cy="112.57528866850373" opacity="0.7588433355137976"></circle><circle r="4.864562687825404" cx="206.37081799767802" cy="614.1787922199687" opacity="0.7093519060607306"></circle><circle r="5.998405562622372" cx="397.5686298380331" cy="298.26561229978415" opacity="0.2797288338326388"></circle><circle r="6.863131150512135" cx="235.16469048321434" cy="454.9224256903793" opacity="0.6063057179241353"></circle><circle r="7.3252877013441715" cx="314.6130792317672" cy="140.18318767515856" opacity="0.6505236023431418"></circle><circle r="2.9882391185400454" cx="746.7361316998552" cy="8.252558059283928" opacity="0.4699454619081497"></circle><circle r="4.812471381424686" cx="484.8795337510594" cy="136.24514435894739" opacity="0.7366902092821911"></circle><circle r="7.5790069398933255" cx="650.9477059281792" cy="136.1597874259906" opacity="0.3553065404948972"></circle><circle r="6.043257956235365" cx="17.166248604758525" cy="216.57915812990092" opacity="0.2573274044104795"></circle><circle r="7.565550873285268" cx="59.64726164014196" cy="537.8007927498156" opacity="0.8875867448552407"></circle><circle r="5.500057658398806" cx="555.3500515440943" cy="754.6605601247531" opacity="0.26087344694176084"></circle><circle r="8.094753765541622" cx="776.7694717234258" cy="152.6508600767634" opacity="0.6258435730524138"></circle><circle r="9.041454619068709" cx="441.93626510072005" cy="255.0793851074599" opacity="0.5470180209948664"></circle><circle r="4.709825010932426" cx="64.53133333465072" cy="662.289028798725" opacity="0.43069422166919924"></circle><circle r="7.378830810823626" cx="521.2028799194034" cy="123.70429919240559" opacity="0.8107074712829018"></circle><circle r="3.4520392319278335" cx="250.68700708932815" cy="753.1250570235875" opacity="0.4638237490643067"></circle><circle r="4.423152809384262" cx="621.8521746968297" cy="499.0892655284853" opacity="0.691458219771301"></circle><circle r="4.52940467951382" cx="399.74745625687854" cy="582.9526951286696" opacity="0.49692031463363406"></circle><circle r="6.675394868976342" cx="316.21444812321266" cy="660.8704759839208" opacity="0.49718529690379865"></circle><circle r="6.998990294707426" cx="49.177650200912076" cy="84.46840518584462" opacity="0.9802749520968096"></circle><circle r="4.958116953867781" cx="94.07395635609726" cy="619.5386824885065" opacity="0.18396150759757796"></circle><circle r="7.45201617408421" cx="159.55184172454233" cy="342.8460385740773" opacity="0.9589629536697121"></circle><circle r="4.607962662925962" cx="101.20115913568571" cy="679.9733275248848" opacity="0.4807665377031274"></circle><circle r="5.53814796360569" cx="337.2147880576424" cy="197.98525157872479" opacity="0.5170254872062645"></circle><circle r="5.69978064515483" cx="600.2044576297393" cy="490.582268727132" opacity="0.8543048379917336"></circle><circle r="5.138439525898104" cx="553.699889645376" cy="17.53616993142993" opacity="0.7543258807885107"></circle><circle r="2.699501113325772" cx="739.2228556294739" cy="767.7685090628332" opacity="0.6924066181343237"></circle><circle r="5.656818483387855" cx="604.7598199202779" cy="356.55091896316014" opacity="0.7640125783413777"></circle><circle r="5.123049081484252" cx="784.7572807941253" cy="83.95002762538398" opacity="0.7585888310249159"></circle><circle r="8.826276857836923" cx="500.2622275729869" cy="409.4129307970566" opacity="0.15531721128662807"></circle><circle r="3.9840875520367782" cx="384.65308234276847" cy="652.3050847608907" opacity="0.9682173703902022"></circle><circle r="6.4556018066413685" cx="192.90603428308552" cy="266.1110442872229" opacity="0.8963888687170483"></circle><circle r="4.314404521203017" cx="685.4894202577943" cy="684.5141608217151" opacity="0.773816990620448"></circle><circle r="7.8564423943485835" cx="747.8333873857052" cy="403.5872780367864" opacity="0.349238524887968"></circle><circle r="7.8021456179724575" cx="434.3709910368563" cy="26.18756315703629" opacity="0.20545055492417758"></circle><circle r="5.9771675170405745" cx="624.3445970738487" cy="185.5082805176807" opacity="0.33453825530363074"></circle><circle r="8.74174270324215" cx="689.1623289581062" cy="72.943216553504" opacity="0.4575096968795832"></circle><circle r="5.538411556504376" cx="223.1444639028639" cy="154.23122277579148" opacity="0.6081383126641157"></circle><circle r="7.591719230277052" cx="65.23751858970309" cy="17.65351318516551" opacity="0.4132896361970386"></circle><circle r="8.708780404616704" cx="598.8668528079259" cy="76.86250949223206" opacity="0.6671604535022316"></circle><circle r="4.522069522533895" cx="345.20597361944283" cy="468.55905980852975" opacity="0.5399237426303268"></circle><circle r="5.63529641097554" cx="263.88084749625403" cy="429.8917095002213" opacity="0.24345560826921472"></circle><circle r="4.258227268147538" cx="597.1795513240826" cy="159.4415337569313" opacity="0.20545180924820536"></circle><circle r="5.633170549260369" cx="546.301494940147" cy="214.4589802462565" opacity="0.3014911629654543"></circle><circle r="4.529507963365096" cx="675.8929837825985" cy="154.3958958449915" opacity="0.9351790355698859"></circle><circle r="6.093061615253508" cx="13.816913132576621" cy="429.0578673965047" opacity="0.27421286509187803"></circle><circle r="3.7475993158582046" cx="49.69181309399502" cy="119.71622617916707" opacity="0.4131436562487377"></circle><circle r="4.633601575024036" cx="339.7524288491282" cy="312.7610966106491" opacity="0.699357132097586"></circle><circle r="6.256617201287585" cx="755.8926202148272" cy="193.46581266248594" opacity="0.8446141373854351"></circle><circle r="5.775246955724137" cx="281.83643172238686" cy="138.93767581901506" opacity="0.8107569416878901"></circle><circle r="6.074383915814136" cx="724.4381399688303" cy="597.6429045713254" opacity="0.5677613732924466"></circle><circle r="4.781883938375433" cx="696.4951160683764" cy="322.0974417242806" opacity="0.6280021982121268"></circle><circle r="5.88137311557543" cx="617.3126431383486" cy="607.4076052894038" opacity="0.7528962839211772"></circle><circle r="4.579688255956377" cx="686.0543643228353" cy="749.8877182602946" opacity="0.5225470351545194"></circle><circle r="4.638378737265231" cx="40.75258077266732" cy="143.15090903083816" opacity="0.8366274639816008"></circle><circle r="3.9843850337049647" cx="493.57343955209376" cy="691.9879644566689" opacity="0.9814697212223262"></circle><circle r="4.675117886562483" cx="315.59584772721223" cy="220.63204741332558" opacity="0.22984498581286897"></circle><circle r="6.1126133008960695" cx="11.02770398330363" cy="382.2290495625788" opacity="0.5779113470984859"></circle><circle r="7.223834162879971" cx="575.9844215908136" cy="234.66374560402335" opacity="0.8254825814751792"></circle><circle r="4.139566837840141" cx="372.9199958141679" cy="488.22000801450696" opacity="0.20797787878365281"></circle><circle r="4.055590284252486" cx="185.7107215710484" cy="643.4059804053659" opacity="0.7405021472433421"></circle><circle r="6.891556530335318" cx="131.340915453458" cy="524.4634640543753" opacity="0.6289571243219818"></circle><circle r="7.500562801662954" cx="579.2949366838047" cy="44.74264872718284" opacity="0.2922775660184743"></circle><circle r="4.781836490361708" cx="445.9062584023957" cy="600.1509447554372" opacity="0.5434814922973717"></circle><circle r="5.961111291812837" cx="757.8022688179971" cy="645.182255523643" opacity="0.76069705594888"></circle><circle r="6.430919667904384" cx="381.203091729894" cy="238.6679700124982" opacity="0.37043690658152073"></circle><circle r="6.956948985385841" cx="429.13197878438433" cy="291.26351144072737" opacity="0.47951754571647676"></circle><circle r="4.349043694688824" cx="124.74949512799236" cy="250.4605745044732" opacity="0.7516450298383062"></circle><circle r="6.24177665350224" cx="30.003819502056857" cy="255.30367058439555" opacity="0.1298127831542865"></circle><circle r="7.4954297891779325" cx="535.0328422625024" cy="651.7899895495343" opacity="0.7251396353310611"></circle><circle r="6.696726631380341" cx="315.5050794374096" cy="697.4991235270041" opacity="0.8323921114150356"></circle><circle r="3.552893097349306" cx="11.880275116592488" cy="138.121762777794" opacity="0.36086878888922136"></circle><circle r="2.54154831732218" cx="265.2961793224499" cy="84.4942595369846" opacity="0.9788868863467654"></circle><circle r="7.467005470367667" cx="741.4131437712011" cy="165.45475702362504" opacity="0.8954237615517597"></circle><circle r="6.427392573524819" cx="117.54604519197531" cy="18.878275543638992" opacity="0.5156798259847156"></circle><circle r="8.959499747091225" cx="19.772142524264112" cy="477.65327659412816" opacity="0.16081792444726126"></circle><circle r="3.710843037613629" cx="759.3592571793718" cy="771.2395138562414" opacity="0.9592557227571318"></circle><circle r="6.409130612594329" cx="246.28810405597497" cy="490.54625935344336" opacity="0.9178896872246968"></circle><circle r="7.979373015353054" cx="300.89347891663215" cy="566.185125953387" opacity="0.6006106827665444"></circle><circle r="7.820556452014905" cx="710.8447262734418" cy="559.4441578732703" opacity="0.3561655455217776"></circle><circle r="5.796694843831684" cx="30.44718060445541" cy="612.846764098031" opacity="0.2989218814568312"></circle><circle r="7.137637425562749" cx="164.2563864050761" cy="377.1581254202441" opacity="0.9066453837802358"></circle><circle r="3.73519411290789" cx="728.5620030616974" cy="514.6894456565091" opacity="0.4619031712797236"></circle><circle r="6.190367551958618" cx="447.8439533748427" cy="158.6866005961156" opacity="0.4910334740948805"></circle><circle r="2.9147786523944603" cx="263.64194284290454" cy="685.8014579463531" opacity="0.8694106907464119"></circle><circle r="6.327986078920937" cx="593.9446352848955" cy="736.7902661849714" opacity="0.894364710901718"></circle><circle r="5.957967651356469" cx="263.6726401309758" cy="112.64590836410213" opacity="0.6788121832959482"></circle><circle r="7.7556588507472535" cx="219.10850968929867" cy="648.7780457539361" opacity="0.6556352840420414"></circle><circle r="5.241410721824025" cx="784.3716479434974" cy="565.0493986890525" opacity="0.5524051294603894"></circle><circle r="6.016012446610585" cx="24.99943068636162" cy="674.3965219368124" opacity="0.912437353233533"></circle><circle r="7.9138400162968185" cx="458.80357770931636" cy="681.3414597601192" opacity="0.936377301890266"></circle><circle r="7.642882574688065" cx="557.7509633269835" cy="559.4588103845796" opacity="0.6457004646224564"></circle><circle r="4.598080583554095" cx="85.84569707000777" cy="135.68023081275663" opacity="0.5922305910609086"></circle><circle r="8.967621046806025" cx="508.5263477950178" cy="535.8204614448312" opacity="0.2351517204455828"></circle><circle r="5.510580080408795" cx="691.7013369898942" cy="451.59285001211026" opacity="0.5343426380461849"></circle><circle r="4.032250528321838" cx="726.2859353290258" cy="345.898735305179" opacity="0.25878744993391967"></circle><circle r="6.393728804999824" cx="119.69208280278652" cy="196.61272645531085" opacity="0.3635463179582815"></circle><circle r="7.839334371423907" cx="195.6385277757944" cy="683.6115888848577" opacity="0.8744116956110712"></circle><circle r="4.986093579810683" cx="171.39793915269956" cy="252.1610864214299" opacity="0.27404179570583154"></circle><circle r="5.739728961904638" cx="747.6001578012444" cy="112.26444347109417" opacity="0.5176769303783275"></circle><circle r="6.708871280232608" cx="376.33263186838286" cy="375.61450033844613" opacity="0.5255826192301013"></circle><circle r="3.115582868741293" cx="158.37089964459477" cy="584.5811983280375" opacity="0.18628471102331684"></circle><circle r="4.154350250985841" cx="481.1824242057916" cy="651.4989523021042" opacity="0.17426012230949167"></circle><circle r="5.926070247031871" cx="620.3433210949463" cy="144.1656953038485" opacity="0.49614141658874056"></circle><circle r="4.324266357911655" cx="367.7044661272954" cy="259.72486903378353" opacity="0.267476259835297"></circle><circle r="6.237727273930771" cx="627.5530138227562" cy="641.2313788393666" opacity="0.5737717260197222"></circle><circle r="6.398764309855051" cx="49.3835551885127" cy="633.7663300576224" opacity="0.938400008232312"></circle><circle r="4.464403674530171" cx="313.305077912061" cy="434.40077188591835" opacity="0.21760363270003918"></circle><circle r="3.4337300236941544" cx="218.08865340891245" cy="739.3852975903644" opacity="0.2640128719955012"></circle><circle r="8.593351572306798" cx="552.4348542357783" cy="291.53053300851286" opacity="0.9721741327967398"></circle><circle r="5.821215790974401" cx="188.9082179470379" cy="188.89853784292944" opacity="0.15555192865214817"></circle><circle r="6.3569068167889125" cx="533.3185437618133" cy="509.93218814789907" opacity="0.4755115380045942"></circle><circle r="6.486529688356859" cx="766.8426581955982" cy="238.8573872713625" opacity="0.17264102026700293"></circle><circle r="9.063887285800785" cx="599.1026021532339" cy="533.9460811134069" opacity="0.9893954695481666"></circle><circle r="7.031106807040278" cx="608.0484932581835" cy="389.8839918298344" opacity="0.2763061490995453"></circle><circle r="3.2825016783181504" cx="363.79230833630896" cy="220.33398126148745" opacity="0.21414136269496115"></circle><circle r="6.105840416983489" cx="529.4595136387776" cy="684.0490325912202" opacity="0.2609026380878615"></circle><circle r="9.58820105892065" cx="443.6014445427548" cy="206.97875598394583" opacity="0.6432092039628264"></circle><circle r="4.300632356685364" cx="169.96449217056903" cy="215.36297505975483" opacity="0.2739767047497549"></circle><circle r="6.041214621885649" cx="556.5219858762347" cy="407.0485359616868" opacity="0.5938820900632467"></circle><circle r="7.184789264364122" cx="507.75183876549477" cy="166.47749447282513" opacity="0.10255769190970192"></circle><circle r="5.704725820528291" cx="61.94431022036764" cy="355.39134473318137" opacity="0.38012146106474176"></circle><circle r="4.42525455720192" cx="597.5757540838275" cy="186.45954748208155" opacity="0.8666896643959339"></circle><circle r="6.035565307228505" cx="263.6419017859706" cy="645.4074070459927" opacity="0.2349027370829032"></circle><circle r="4.142563106261713" cx="97.17411517505059" cy="410.69854246974063" opacity="0.36050913042825705"></circle><circle r="3.346375451513476" cx="774.3840874189714" cy="670.059098528412" opacity="0.23956851343527324"></circle><circle r="8.143776739134996" cx="557.9249855662814" cy="607.298953543023" opacity="0.6502029284773599"></circle><circle r="9.375558199045066" cx="249.4069967063711" cy="327.0349026675911" opacity="0.7466595962996626"></circle><circle r="5.405308418144452" cx="473.2228222771659" cy="310.9009475331432" opacity="0.28909497299178744"></circle><circle r="6.152315510204018" cx="689.1211049038895" cy="419.9445921045923" opacity="0.7988046477257775"></circle><circle r="9.51975846190566" cx="642.8669040267591" cy="60.488853934683014" opacity="0.4133771013098203"></circle><circle r="4.145209285258143" cx="645.9613360570015" cy="357.97365113103524" opacity="0.22185469888410622"></circle><circle r="6.425448494170507" cx="476.3823080297502" cy="46.14180341924554" opacity="0.9073894930195122"></circle><circle r="7.966774083265067" cx="351.6387338046852" cy="588.3402461167716" opacity="0.8773738171110809"></circle><circle r="6.93796121745383" cx="22.188259300388815" cy="780.9050672398449" opacity="0.8661486225728597"></circle><circle r="5.88816197580883" cx="650.5622825959308" cy="240.7619299094862" opacity="0.40299285869731327"></circle><circle r="8.54837895975225" cx="59.70737722207407" cy="498.74739711992356" opacity="0.9092705116561358"></circle><circle r="4.501455616823491" cx="267.8558128462963" cy="733.9888478608806" opacity="0.8331935512102983"></circle><circle r="4.458941161501977" cx="73.38565753356225" cy="112.06387380087061" opacity="0.5828057556332197"></circle><circle r="4.617263356955262" cx="790.3177449842118" cy="224.49977047375873" opacity="0.822322780436452"></circle><circle r="7.772422893307452" cx="543.5398097952377" cy="155.5277811779493" opacity="0.41252659880171194"></circle><circle r="4.509387390503572" cx="139.7177985527518" cy="398.2289084280496" opacity="0.42891350927525584"></circle><circle r="6.911330031905905" cx="581.9757082310232" cy="322.54212193065854" opacity="0.7564303790993099"></circle><circle r="3.806045921761648" cx="607.8266059860533" cy="776.4517560453513" opacity="0.6909676531957002"></circle><circle r="3.231106139474756" cx="496.71619012988907" cy="669.9093113390994" opacity="0.9034110362630162"></circle><circle r="4.800946838405617" cx="541.8475699963083" cy="473.4504002413067" opacity="0.2237590106638012"></circle><circle r="5.979809336521588" cx="12.405980263125274" cy="645.5456781222845" opacity="0.9555959021305296"></circle><circle r="5.555179431450211" cx="672.5056029993137" cy="786.5568392412531" opacity="0.1404512554190963"></circle><circle r="3.7344852868027427" cx="402.1589147555356" cy="558.0169901146292" opacity="0.7533404066795197"></circle><circle r="6.674695393258851" cx="760.2001921808222" cy="331.7976110275095" opacity="0.19791625524032397"></circle><circle r="5.798813890416669" cx="117.68468110033135" cy="385.7194733473507" opacity="0.9302243001975845"></circle><circle r="4.155073576215665" cx="438.94647379653156" cy="703.5745667633586" opacity="0.8306762486044423"></circle><circle r="5.111689504122296" cx="623.8528146230395" cy="108.94654574574838" opacity="0.744903277576083"></circle><circle r="5.964259019781995" cx="589.0891857392861" cy="597.1377214671418" opacity="0.23272311680525457"></circle><circle r="4.144173361794959" cx="545.9802007719089" cy="706.4881457095943" opacity="0.22943394912137766"></circle><circle r="9.557615375346218" cx="147.4514825576061" cy="780.0784755349572" opacity="0.3615537628040265"></circle><circle r="3.8916385517660794" cx="98.97090767719612" cy="330.59881726971486" opacity="0.4121281975934684"></circle><circle r="5.150607493907085" cx="319.54270270085334" cy="283.3800673129944" opacity="0.8755467278343786"></circle><circle r="5.807905606704517" cx="253.53613189429177" cy="787.5156091959946" opacity="0.38654540654247493"></circle><circle r="5.630137933552373" cx="399.824120759768" cy="130.34337705441024" opacity="0.8598285929359345"></circle><circle r="2.9683046988685913" cx="62.6281482728291" cy="421.26172192405045" opacity="0.10912919849757449"></circle><circle r="6.338101258099315" cx="365.861377473573" cy="167.22314192060216" opacity="0.7525537180856015"></circle><circle r="5.868173611197271" cx="614.1751665751626" cy="246.16288563612446" opacity="0.9852525740865111"></circle><circle r="9.500119481223965" cx="70.56711209971215" cy="589.4540051123985" opacity="0.9442255187447915"></circle><circle r="4.4148883953027" cx="74.96145170976132" cy="167.30377677151515" opacity="0.8041735207590076"></circle><circle r="6.3753474392277685" cx="514.4623988651797" cy="311.17454375544816" opacity="0.6005591080605833"></circle><circle r="3.3678126727243267" cx="614.16661756305" cy="753.6792299841009" opacity="0.5953920372479738"></circle><circle r="6.057958417613775" cx="570.640006721086" cy="510.61204826610975" opacity="0.23886057875906538"></circle><circle r="5.517073837370855" cx="139.54766612915404" cy="217.02812648066578" opacity="0.5658037207408633"></circle><circle r="4.70003592685963" cx="512.617458102449" cy="29.7498098649889" opacity="0.8459679509570663"></circle><circle r="7.459231610871046" cx="518.87028567566" cy="243.2701340757539" opacity="0.2263791333877108"></circle><circle r="4.545748370004887" cx="653.4445695783611" cy="661.6054509175383" opacity="0.5698559760714378"></circle><circle r="5.139418739876298" cx="208.88347072759322" cy="299.5279836642915" opacity="0.5008213841183862"></circle><circle r="6.6630054910021315" cx="749.9798506964761" cy="569.2342373443771" opacity="0.10071563078807254"></circle><circle r="4.287555839620904" cx="63.089077840844126" cy="402.4105344441204" opacity="0.16828674635349278"></circle><circle r="9.029183919058003" cx="175.33491128959787" cy="729.2175104175869" opacity="0.4102393798462255"></circle><circle r="7.812219945611284" cx="700.8090385317932" cy="388.72297503799234" opacity="0.35433597333288414"></circle><circle r="7.406993726051854" cx="61.18357580087386" cy="461.7122848976192" opacity="0.9774121284468601"></circle><circle r="4.895483283800633" cx="571.0137634022824" cy="643.4638275251135" opacity="0.29149692303118807"></circle><circle r="3.502374788993137" cx="781.1648879611088" cy="31.94276630934686" opacity="0.7001390316314585"></circle><circle r="4.508579034238851" cx="130.64815978652078" cy="638.5111705798499" opacity="0.7206227490562407"></circle><circle r="4.928362989542744" cx="79.96369480576394" cy="434.1702293974765" opacity="0.5225841485580938"></circle><circle r="4.90543753974323" cx="480.53205594180486" cy="501.53284853852955" opacity="0.7534112042453006"></circle><circle r="6.476576376654485" cx="93.3197444750687" cy="360.541424939526" opacity="0.6894340263790816"></circle><circle r="3.2783971658765383" cx="190.7499395242888" cy="789.3186090197901" opacity="0.9744102715442808"></circle><circle r="4.484106666240236" cx="254.29872041193312" cy="402.5040964460593" opacity="0.3775200385367137"></circle><circle r="7.095798714894489" cx="280.7572690282715" cy="776.332025469102" opacity="0.5665090980567935"></circle><circle r="5.416275996901471" cx="750.2180056057225" cy="369.3759871959624" opacity="0.589638548734306"></circle><circle r="5.154352577089739" cx="628.8067047028886" cy="412.67215155200626" opacity="0.8484008325518686"></circle><circle r="4.293704094115696" cx="575.2828059069093" cy="371.6291408408078" opacity="0.1971264968239107"></circle><circle r="7.514992631872747" cx="354.93768545312554" cy="350.16423056346974" opacity="0.3641342521601758"></circle><circle r="5.531832864081098" cx="362.718194534168" cy="781.9087381817998" opacity="0.18756099153059624"></circle><circle r="6.421320565114901" cx="142.28122122376956" cy="735.4821251943793" opacity="0.807748168894234"></circle><circle r="4.379703803531146" cx="226.83285923245148" cy="83.73547794279894" opacity="0.25859539621753425"></circle><circle r="9.098690387108695" cx="266.44686484482116" cy="528.7005000726036" opacity="0.21205564795431608"></circle><circle r="5.6600560730006775" cx="734.4819623912603" cy="632.5466359988558" opacity="0.3457174690328346"></circle><circle r="5.3436776091916105" cx="188.10783863057955" cy="145.85928971972055" opacity="0.3642930203801287"></circle><circle r="5.370461348214474" cx="88.51578191950489" cy="386.2469233061461" opacity="0.6806286177110602"></circle><circle r="7.199161213283146" cx="521.0347109765955" cy="579.8132175976025" opacity="0.5384250477567792"></circle><circle r="5.587226025150957" cx="410.32006483984526" cy="187.60489129056012" opacity="0.16894437280483393"></circle><circle r="3.967765128323943" cx="788.381938277357" cy="261.5532143145935" opacity="0.530275566898868"></circle><circle r="4.74223432366243" cx="412.1686511280213" cy="229.30221278834432" opacity="0.319060276501657"></circle><circle r="4.256052443665142" cx="667.925700790133" cy="605.251379783208" opacity="0.8747226452742477"></circle><circle r="7.663077279607359" cx="457.93592994368896" cy="116.19279990559461" opacity="0.2177597257637361"></circle><circle r="6.881511408330873" cx="101.68781266684512" cy="237.2678560355609" opacity="0.15364419388006129"></circle><circle r="6.776905841180444" cx="733.5256473715659" cy="56.99685989272061" opacity="0.1687951501574587"></circle><circle r="4.246867767592345" cx="153.48696467635938" cy="422.07711502826976" opacity="0.19245242849790362"></circle><circle r="3.7957576859354747" cx="321.4361273810374" cy="64.75447636615667" opacity="0.6386601428072124"></circle><circle r="6.439579461740028" cx="236.54161442607443" cy="289.2173417695466" opacity="0.5585338093030016"></circle><circle r="8.924282093003209" cx="398.0971174518807" cy="345.3270657212742" opacity="0.78334797206193"></circle><circle r="5.320415685682856" cx="161.0485737614946" cy="285.51436425791087" opacity="0.5233769916114432"></circle><circle r="3.3911086580149523" cx="656.9435194439582" cy="700.8962166378453" opacity="0.5202029748871893"></circle><circle r="4.423987280203223" cx="364.2423614688065" cy="15.666565031115711" opacity="0.13618006204268113"></circle><circle r="4.587065176102858" cx="19.407664393453235" cy="110.8792802107336" opacity="0.18468036245771874"></circle><circle r="6.529144183762099" cx="652.8469439213849" cy="727.355411808834" opacity="0.5398144012822166"></circle><circle r="7.276558646455705" cx="287.4191916274114" cy="357.4965060010573" opacity="0.46527471253518293"></circle><circle r="7.219027391611023" cx="683.6577783836163" cy="127.70225210516526" opacity="0.796418796492805"></circle><circle r="3.894545452923357" cx="282.9425722883888" cy="325.1769192045006" opacity="0.4224571080953712"></circle><circle r="7.306125309624891" cx="256.30164314767535" cy="54.276497684090806" opacity="0.1416392069290356"></circle><circle r="3.383621149341223" cx="212.62320147993384" cy="251.31795284359987" opacity="0.6637455147544301"></circle><circle r="4.254086644989338" cx="674.7216623566711" cy="537.2085224294705" opacity="0.7473816533642651"></circle><circle r="5.995283478348787" cx="251.68359595757596" cy="147.2875728367624" opacity="0.5472143648415136"></circle><circle r="4.769959577411814" cx="500.42595026791025" cy="208.10120287608643" opacity="0.9031977790049837"></circle><circle r="6.784307165031318" cx="529.1379673581057" cy="192.74072305826044" opacity="0.7086473603383289"></circle><circle r="6.444934778029603" cx="551.982055141926" cy="253.39641073935954" opacity="0.6415086524376565"></circle><circle r="7.466456083554416" cx="287.8725698904992" cy="20.577429572352678" opacity="0.5868478594972818"></circle><circle r="9.444909949686302" cx="487.93977568144004" cy="459.3333557287491" opacity="0.3181312494135413"></circle><circle r="4.7544616939170625" cx="385.48795465817403" cy="113.9590948470766" opacity="0.8281948588815143"></circle><circle r="9.087136068738136" cx="480.19249724713075" cy="581.0072596770266" opacity="0.7158017806936653"></circle><circle r="5.08756098874356" cx="493.9568477102949" cy="340.20532524004346" opacity="0.17206803072331542"></circle><circle r="7.774427140449037" cx="324.1772178942772" cy="517.3044732686285" opacity="0.48948570452216966"></circle><circle r="5.797282169682527" cx="403.73384720250226" cy="782.4040445786432" opacity="0.8351989456447988"></circle><circle r="6.7503004398554385" cx="36.33195437110188" cy="394.49128546612377" opacity="0.4396972731559553"></circle><circle r="3.925490892181882" cx="789.7788865782456" cy="606.132009253741" opacity="0.5019426372919047"></circle><circle r="7.010396259664115" cx="666.671983937093" cy="23.34327953437769" opacity="0.77644146099637"></circle><circle r="8.054408246523305" cx="68.74376390521286" cy="243.43745247143107" opacity="0.27003962495696976"></circle><circle r="5.296420691903761" cx="132.55550963319678" cy="669.3232336744992" opacity="0.10035066593563009"></circle><circle r="4.510764302290125" cx="222.2579560076134" cy="180.70037842160113" opacity="0.18126367616137018"></circle><circle r="6.196198517850837" cx="329.5082910524478" cy="14.984221195550482" opacity="0.7602368347017917"></circle><circle r="4.682525693400774" cx="203.5882458850261" cy="120.8411211635936" opacity="0.961832793117517"></circle><circle r="3.569896465231973" cx="160.70448917800084" cy="554.9673663410254" opacity="0.5014314973662014"></circle><circle r="4.629670818921825" cx="298.13563213649644" cy="98.89405950834788" opacity="0.9888235623063703"></circle><circle r="4.431425961444268" cx="371.7505232371254" cy="754.3505429980705" opacity="0.4632842324923616"></circle><circle r="5.532258030198015" cx="652.4168046421278" cy="207.72112564646375" opacity="0.8564908739191567"></circle><circle r="5.283499593451602" cx="143.4120568518377" cy="699.0959848434943" opacity="0.38445403719774784"></circle><circle r="4.756340724514839" cx="467.95036181673095" cy="721.5198961403933" opacity="0.16327706750861365"></circle><circle r="8.585779058655984" cx="251.03477672834018" cy="17.95661822315682" opacity="0.19677883458742207"></circle><circle r="5.323231264996773" cx="124.31664577793809" cy="352.4994079444551" opacity="0.47605921314600463"></circle><circle r="7.198189373898291" cx="521.4296133964683" cy="617.9965235012809" opacity="0.7121029179848417"></circle><circle r="7.339622431904257" cx="350.2259687642984" cy="553.1904191159664" opacity="0.9792091585641935"></circle><circle r="5.610970651971983" cx="40.619377367979304" cy="434.5733189890628" opacity="0.7702407901515049"></circle><circle r="6.1563366162700435" cx="123.49424996869823" cy="103.23723652176905" opacity="0.15750894601725496"></circle><circle r="5.216886525536454" cx="396.8424985761626" cy="59.97505104465801" opacity="0.2622171725721266"></circle><circle r="5.306836679095979" cx="748.5363308806227" cy="534.1133362114031" opacity="0.5747194522212823"></circle><circle r="4.152634340268487" cx="311.8344658079145" cy="399.11567800229267" opacity="0.3096544207000385"></circle><circle r="5.843917783157911" cx="600.2648162192401" cy="422.4580460050522" opacity="0.24721868934451222"></circle><circle r="2.403662381833506" cx="271.76621485999925" cy="703.1564017206292" opacity="0.3202849343246693"></circle><circle r="6.558512602848188" cx="71.11233976837451" cy="323.166001147234" opacity="0.9194080805632406"></circle><circle r="6.81976901201047" cx="406.2333752182307" cy="694.0211362338937" opacity="0.6973533968427043"></circle><circle r="5.068505451434881" cx="733.1077598683519" cy="135.51169063416035" opacity="0.6460924140584745"></circle><circle r="3.2443726612852823" cx="383.68642079438496" cy="150.74415945894418" opacity="0.9188212283015627"></circle><circle r="5.113978384346726" cx="787.2691320046893" cy="706.9069141702959" opacity="0.9160759599237284"></circle><circle r="4.924792164748454" cx="11.203322630907058" cy="595.1890937105085" opacity="0.16877392161991173"></circle></g></svg>